<?xml version="1.0" encoding="iso-8859-1"?>
<!-- Generator: Adobe Illustrator 19.0.0, SVG Export Plug-In . SVG Version: 6.00 Build 0)  -->
<svg version="1.1" id="Layer_1" xmlns="http://www.w3.org/2000/svg" xmlns:xlink="http://www.w3.org/1999/xlink" x="0px" y="0px"
	 viewBox="0 0 512 512" style="enable-background:new 0 0 512 512;" xml:space="preserve">
<g transform="translate(1 1)">
	<g>
		<path style="fill:#FFE100;" d="M178.321,280.6l-8.533-17.067"/>
		<path style="fill:#FFE100;" d="M417.254,220.867c0-18.773-15.36-34.133-34.133-34.133s-8.533,15.36-8.533,34.133V178.2
			c0-18.773-15.36-34.133-34.133-34.133s-34.133,15.36-34.133,34.133v-34.133c0-18.773-15.36-34.133-34.133-34.133l0,0
			c-18.773,0-34.133,15.36-34.133,34.133V178.2V41.667c0-18.773,1.707-34.133-17.067-34.133l0,0c-18.773,0-25.6,15.36-25.6,34.133
			v221.867l-15.36-23.04c-2.56-5.12-5.973-9.387-10.24-12.8c-7.68-7.68,0.853,23.04-8.533,18.773
			c-8.533-3.413-34.133-41.813-42.667-42.667c-8.533-0.853-17.067,0.853-23.893,3.413c-4.267,0.853-6.827,3.413-10.24,5.12
			c-10.24,6.827-8.533,14.507-8.533,17.067s48.64,52.053,76.8,102.4c0,0,24.747,40.96,51.2,68.267v25.6
			c0,42.667,8.533,76.8,51.2,76.8h85.333c33.28,0,41.813-28.16,49.493-60.587c1.707-7.68,5.12-18.773,10.24-24.747
			c7.68-8.533,17.067-29.867,17.067-59.733V220.867z"/>
	</g>
	<g>
		<path style="fill:#FFFFFF;" d="M203.921,425.667v-25.6c-26.453-27.307-51.2-68.267-51.2-68.267
			c-28.16-50.347-76.8-99.84-76.8-102.4s-1.707-10.24,8.533-17.067c3.413-1.707,5.973-4.267,10.24-5.12
			c2.56-0.853,5.12-1.707,7.68-1.707c-11.947-2.56-23.04-1.707-33.28,1.707c-3.413,0.853-6.827,3.413-10.24,5.12
			c-10.24,6.827-8.533,14.507-8.533,17.067s48.64,52.053,76.8,102.4c0,0,24.747,40.96,51.2,68.267v25.6
			c0,42.667,8.533,76.8,51.2,76.8h25.6C212.454,502.467,203.921,468.333,203.921,425.667"/>
		<path style="fill:#FFFFFF;" d="M180.027,240.493l15.36,23.04V41.667c0-12.8,3.413-24.747,11.947-29.867
			c-2.56-2.56-5.973-4.267-11.947-4.267c-18.773,0-25.6,15.36-25.6,34.133v186.027C173.201,231.96,176.614,236.227,180.027,240.493"
			/>
	</g>
	<path style="fill:#FFA800;" d="M408.721,186.733c-4.267,0-8.533,0.853-12.8,2.56c12.8,5.12,21.333,17.067,21.333,31.573V357.4
		c0,29.867-9.387,51.2-17.067,59.733c-5.12,5.973-8.533,17.067-10.24,24.747c-7.68,32.427-41.813,60.587-75.093,60.587h25.6
		c33.28,0,67.413-28.16,75.093-60.587c1.707-7.68,5.12-18.773,10.24-24.747c7.68-8.533,17.067-29.867,17.067-59.733V220.867
		C442.854,202.093,427.494,186.733,408.721,186.733"/>
	<path style="fill:#FFE100;" d="M434.321,186.733c-4.267,0-8.533,0.853-12.8,2.56c12.8,5.12,21.333,17.067,21.333,31.573V357.4
		c0,29.867-9.387,51.2-17.067,59.733c-5.12,5.973-8.533,17.067-10.24,24.747c-7.68,32.427-41.813,60.587-75.093,60.587h25.6
		c33.28,0,67.413-28.16,75.093-60.587c1.707-7.68,5.12-18.773,10.24-24.747c7.68-8.533,17.067-29.867,17.067-59.733V220.867
		C468.454,202.093,453.094,186.733,434.321,186.733"/>
	<path id="SVGCleanerId_0" d="M178.321,289.133c-3.413,0-5.973-1.707-7.68-5.12l-8.533-17.067c-1.707-4.267,0-9.387,3.413-11.093
		c4.267-1.707,9.387,0,11.093,3.413l8.533,17.067c1.707,4.267,0,9.387-3.413,11.093
		C180.881,289.133,180.027,289.133,178.321,289.133z"/>
	<path d="M391.654,434.2c-3.413,0-6.827-2.56-8.533-5.973c-0.853-4.267,1.707-9.387,5.973-10.24l5.12-0.853
		c18.773-5.12,29.013-7.68,32.427-18.773c1.707-4.267,5.973-6.827,11.093-5.12c4.267,1.707,6.827,5.973,5.12,11.093
		c-6.827,20.48-25.6,24.747-44.373,29.867h-4.267C393.361,434.2,392.507,434.2,391.654,434.2z"/>
	<path d="M212.454,434.2c-1.707,0-3.413-0.853-5.12-1.707c-5.12-4.267-9.387-6.827-14.507-11.093
		c-6.827-4.267-12.8-9.387-19.627-15.36c-3.413-3.413-3.413-8.533-0.853-11.947c3.413-3.413,8.533-3.413,11.947-0.853
		c5.973,5.12,11.947,9.387,17.92,13.653c5.12,3.413,10.24,6.827,15.36,11.947c3.413,3.413,4.267,8.533,0.853,11.947
		C217.574,433.347,215.014,434.2,212.454,434.2z"/>
	<path d="M340.454,511h-85.333c-46.933,0-85.333-38.4-85.333-85.333V403.48c-25.6-28.16-48.64-65.707-50.347-67.413
		c-19.627-35.84-51.2-71.68-65.707-88.747c-11.947-13.653-12.8-14.507-11.947-19.627c0-3.413-0.853-14.507,11.947-23.04
		c4.267-2.56,7.68-5.12,11.947-5.973c33.28-11.947,76.8,4.267,95.573,36.693V152.6c0-5.12,3.413-8.533,8.533-8.533
		c5.12,0,8.533,3.413,8.533,8.533v110.933c0,3.413-2.56,6.827-5.973,8.533c-3.413,0.853-7.68,0-9.387-3.413l-15.36-23.04
		c-16.213-28.16-52.907-38.4-75.093-30.72c-2.56,0.853-5.12,2.56-8.533,4.267c-5.12,3.413-5.12,5.12-5.12,7.68
		c1.707,1.707,5.12,5.973,7.68,9.387c15.36,17.92,47.787,54.613,68.267,91.307c0,0,24.747,40.107,50.347,66.56
		c1.707,1.707,2.56,3.413,2.56,5.973v25.6c0,37.547,30.72,68.267,68.267,68.267h85.333c29.013,0,60.587-24.747,66.56-53.76
		c2.56-12.8,6.827-23.04,11.947-29.013c5.12-5.973,15.36-24.747,15.36-53.76V220.867c0-14.507-11.093-25.6-25.6-25.6
		c-14.507,0-25.6,11.093-25.6,25.6c0,5.12-3.413,8.533-8.533,8.533c-5.12,0-8.533-3.413-8.533-8.533V178.2
		c0-14.507-11.093-25.6-25.6-25.6c-14.507,0-25.6,11.093-25.6,25.6c0,5.12-3.413,8.533-8.533,8.533s-8.533-3.413-8.533-8.533
		v-34.133c0-14.507-11.093-25.6-25.6-25.6s-25.6,11.093-25.6,25.6V178.2c0,5.12-3.413,8.533-8.533,8.533
		c-5.12,0-8.533-3.413-8.533-8.533V41.667c0-14.507-11.093-25.6-25.6-25.6c-14.507,0-25.6,11.093-25.6,25.6v42.667
		c0,5.12-3.413,8.533-8.533,8.533c-5.12,0-8.533-3.413-8.533-8.533V41.667C162.107,17.773,180.881-1,204.774-1
		s42.667,18.773,42.667,42.667v68.267c6.827-5.12,16.213-8.533,25.6-8.533c23.893,0,42.667,18.773,42.667,42.667l0,0
		c6.827-5.12,16.213-8.533,25.6-8.533c23.893,0,42.667,18.773,42.667,42.667v8.533c6.827-5.12,16.213-8.533,25.6-8.533
		c23.893,0,42.667,18.773,42.667,42.667V357.4c0,31.573-10.24,55.467-18.773,65.707c-3.413,3.413-5.973,11.093-8.533,21.333
		C415.547,480.28,377.147,511,340.454,511z"/>
	<path d="M178.321,118.467c0-5.12-3.413-8.533-8.533-8.533c-5.12,0-8.533,3.413-8.533,8.533s3.413,8.533,8.533,8.533
		C174.907,127,178.321,123.587,178.321,118.467"/>
	<g>
		<path id="SVGCleanerId_0_1_" d="M178.321,289.133c-3.413,0-5.973-1.707-7.68-5.12l-8.533-17.067
			c-1.707-4.267,0-9.387,3.413-11.093c4.267-1.707,9.387,0,11.093,3.413l8.533,17.067c1.707,4.267,0,9.387-3.413,11.093
			C180.881,289.133,180.027,289.133,178.321,289.133z"/>
	</g>
	<path d="M238.054,291.693c-5.12,0-8.533-3.413-8.533-8.533V178.2c0-5.12,3.413-8.533,8.533-8.533c5.12,0,8.533,3.413,8.533,8.533
		v104.96C246.587,288.28,243.174,291.693,238.054,291.693z"/>
	<path d="M306.321,283.16c-5.12,0-8.533-3.413-8.533-8.533V178.2c0-5.12,3.413-8.533,8.533-8.533c5.12,0,8.533,3.413,8.533,8.533
		v96.427C314.854,279.747,311.441,283.16,306.321,283.16z"/>
	<path d="M374.587,291.693c-5.12,0-8.533-3.413-8.533-8.533v-62.293c0-5.12,3.413-8.533,8.533-8.533s8.533,3.413,8.533,8.533v62.293
		C383.121,288.28,379.707,291.693,374.587,291.693z"/>
	<path d="M391.654,436.76c-3.413,0-6.827-2.56-8.533-5.973c-0.853-4.267,1.707-9.387,5.973-10.24
		c21.333-5.973,33.28-10.24,37.547-23.04c1.707-4.267,5.973-6.827,11.093-5.12c4.267,1.707,6.827,5.973,5.12,11.093
		c-7.68,21.333-27.307,28.16-49.493,34.133C393.361,436.76,392.507,436.76,391.654,436.76z"/>
	<path d="M213.307,437.613c-1.707,0-3.413-0.853-5.12-1.707c-4.267-3.413-8.533-6.827-11.947-10.24
		c-7.68-5.973-16.213-12.8-23.04-19.627c-3.413-3.413-3.413-8.533-0.853-11.947c3.413-3.413,8.533-3.413,11.947-0.853
		c6.827,6.827,14.507,12.8,22.187,18.773c4.267,3.413,8.533,6.827,12.8,10.24c3.413,3.413,4.267,8.533,0.853,11.947
		C218.427,436.76,215.867,437.613,213.307,437.613z"/>
</g>
<g>
</g>
<g>
</g>
<g>
</g>
<g>
</g>
<g>
</g>
<g>
</g>
<g>
</g>
<g>
</g>
<g>
</g>
<g>
</g>
<g>
</g>
<g>
</g>
<g>
</g>
<g>
</g>
<g>
</g>
</svg>
