<?xml version="1.0" encoding="iso-8859-1"?>
<!-- Generator: Adobe Illustrator 19.0.0, SVG Export Plug-In . SVG Version: 6.00 Build 0)  -->
<svg version="1.1" id="Capa_1" xmlns="http://www.w3.org/2000/svg" xmlns:xlink="http://www.w3.org/1999/xlink" x="0px" y="0px"
	 viewBox="0 0 489.803 489.803" style="enable-background:new 0 0 489.803 489.803;" xml:space="preserve">
<g>
	<g>
		<path d="M11.701,244.606h10.6v13.5c0,19.3,15.7,35,35,35h8.7l35.1,117c2.8,9.2,12.2,14.6,21.5,12.4c9-2.1,14.9-10.7,13.7-19.8
			l-13.9-109.6h17.5c8.1,0,14.6-6.5,14.6-14.6l0,0v-0.4c34.1,4.9,91.6,17.4,140.9,48.6c8.4,16.5,18.5,26.3,29.6,26.3
			c28.3,0,51.3-64.1,51.3-143.1c0-79.1-23-143.1-51.3-143.1c-10.2,0-19.8,8.5-27.8,22.9c-49.8,32.1-108.4,44.8-142.9,49.7
			c-0.9-7.2-7-12.7-14.4-12.7h-82.6c-19.3,0-35,15.7-35,35v15.6h-10.6c-6.5,0-11.7,5.3-11.7,11.7v43.8
			C-0.099,239.306,5.201,244.606,11.701,244.606z M310.401,175.406c2.8-29,8.9-50.9,14.7-64.1c7.8,18,16.3,52.3,16.3,98.6
			s-8.5,80.5-16.3,98.6c-5.8-13.2-11.8-35.2-14.7-64.1c11.4-3.7,19.9-17.7,19.9-34.4
			C330.301,193.106,321.801,179.106,310.401,175.406z"/>
		<path d="M475.501,195.506h-57.6c-7.9,0-14.3,6.4-14.3,14.3c0,7.9,6.4,14.3,14.3,14.3h57.6c7.9,0,14.3-6.4,14.3-14.3
			C489.901,201.906,483.401,195.506,475.501,195.506z"/>
		<path d="M478.401,284.606c2.3-7.1-1.3-14.7-8.3-17.5l-55-21.8c-7.6-3-16.2,1-18.7,8.8c-2.3,7.1,1.3,14.7,8.3,17.5l55,21.8
			C467.301,296.506,475.901,292.406,478.401,284.606z"/>
		<path d="M415.201,174.306l55-21.8c6.9-2.7,10.5-10.4,8.3-17.5c-2.5-7.8-11.1-11.9-18.7-8.8l-55,21.8c-6.9,2.7-10.5,10.4-8.3,17.5
			C399.001,173.306,407.501,177.406,415.201,174.306z"/>
	</g>
</g>
<g>
</g>
<g>
</g>
<g>
</g>
<g>
</g>
<g>
</g>
<g>
</g>
<g>
</g>
<g>
</g>
<g>
</g>
<g>
</g>
<g>
</g>
<g>
</g>
<g>
</g>
<g>
</g>
<g>
</g>
</svg>
